<mxfile host="app.diagrams.net" modified="2023-11-02T21:08:10.308Z" agent="Mozilla/5.0 (Windows NT 10.0; Win64; x64) AppleWebKit/537.36 (KHTML, like Gecko) Chrome/118.0.0.0 Safari/537.36" etag="1LUMeHLSCgh3wG4RwCl1" version="22.0.8" type="github">
  <diagram name="Page-1" id="mkiI_pGD4ofqKNA4xwyw">
    <mxGraphModel dx="1000" dy="546" grid="1" gridSize="10" guides="1" tooltips="1" connect="1" arrows="1" fold="1" page="1" pageScale="1" pageWidth="1200" pageHeight="1920" math="0" shadow="0">
      <root>
        <mxCell id="0" />
        <mxCell id="1" parent="0" />
        <mxCell id="BlL1KjPirwgMcjWJh_a4-8" style="edgeStyle=orthogonalEdgeStyle;rounded=0;orthogonalLoop=1;jettySize=auto;html=1;" edge="1" parent="1" source="BlL1KjPirwgMcjWJh_a4-3" target="BlL1KjPirwgMcjWJh_a4-5">
          <mxGeometry relative="1" as="geometry" />
        </mxCell>
        <mxCell id="BlL1KjPirwgMcjWJh_a4-3" value="Создать соревнование" style="whiteSpace=wrap;html=1;" vertex="1" parent="1">
          <mxGeometry x="440" y="160" width="120" height="60" as="geometry" />
        </mxCell>
        <mxCell id="BlL1KjPirwgMcjWJh_a4-10" style="edgeStyle=orthogonalEdgeStyle;rounded=0;orthogonalLoop=1;jettySize=auto;html=1;" edge="1" parent="1" source="BlL1KjPirwgMcjWJh_a4-4" target="BlL1KjPirwgMcjWJh_a4-7">
          <mxGeometry relative="1" as="geometry" />
        </mxCell>
        <mxCell id="BlL1KjPirwgMcjWJh_a4-11" style="edgeStyle=orthogonalEdgeStyle;rounded=0;orthogonalLoop=1;jettySize=auto;html=1;" edge="1" parent="1" source="BlL1KjPirwgMcjWJh_a4-4" target="BlL1KjPirwgMcjWJh_a4-6">
          <mxGeometry relative="1" as="geometry" />
        </mxCell>
        <mxCell id="BlL1KjPirwgMcjWJh_a4-4" value="Добавить участников" style="whiteSpace=wrap;html=1;" vertex="1" parent="1">
          <mxGeometry x="440" y="360" width="120" height="60" as="geometry" />
        </mxCell>
        <mxCell id="BlL1KjPirwgMcjWJh_a4-9" style="edgeStyle=orthogonalEdgeStyle;rounded=0;orthogonalLoop=1;jettySize=auto;html=1;" edge="1" parent="1" source="BlL1KjPirwgMcjWJh_a4-5" target="BlL1KjPirwgMcjWJh_a4-4">
          <mxGeometry relative="1" as="geometry" />
        </mxCell>
        <mxCell id="BlL1KjPirwgMcjWJh_a4-5" value="Добавить призовые места" style="whiteSpace=wrap;html=1;" vertex="1" parent="1">
          <mxGeometry x="440" y="260" width="120" height="60" as="geometry" />
        </mxCell>
        <mxCell id="BlL1KjPirwgMcjWJh_a4-12" style="edgeStyle=orthogonalEdgeStyle;rounded=0;orthogonalLoop=1;jettySize=auto;html=1;" edge="1" parent="1" source="BlL1KjPirwgMcjWJh_a4-6" target="BlL1KjPirwgMcjWJh_a4-13">
          <mxGeometry relative="1" as="geometry" />
        </mxCell>
        <mxCell id="BlL1KjPirwgMcjWJh_a4-6" value="Запланировать" style="whiteSpace=wrap;html=1;" vertex="1" parent="1">
          <mxGeometry x="360" y="480" width="120" height="60" as="geometry" />
        </mxCell>
        <mxCell id="BlL1KjPirwgMcjWJh_a4-14" value="" style="edgeStyle=orthogonalEdgeStyle;rounded=0;orthogonalLoop=1;jettySize=auto;html=1;" edge="1" parent="1" source="BlL1KjPirwgMcjWJh_a4-7" target="BlL1KjPirwgMcjWJh_a4-13">
          <mxGeometry relative="1" as="geometry" />
        </mxCell>
        <mxCell id="BlL1KjPirwgMcjWJh_a4-7" value="Запустить" style="whiteSpace=wrap;html=1;" vertex="1" parent="1">
          <mxGeometry x="520" y="480" width="120" height="60" as="geometry" />
        </mxCell>
        <mxCell id="BlL1KjPirwgMcjWJh_a4-19" style="edgeStyle=orthogonalEdgeStyle;rounded=0;orthogonalLoop=1;jettySize=auto;html=1;" edge="1" parent="1" source="BlL1KjPirwgMcjWJh_a4-16" target="BlL1KjPirwgMcjWJh_a4-17">
          <mxGeometry relative="1" as="geometry" />
        </mxCell>
        <mxCell id="BlL1KjPirwgMcjWJh_a4-13" value="Ежедневное формирование рейтинга" style="whiteSpace=wrap;html=1;" vertex="1" parent="1">
          <mxGeometry x="440" y="600" width="120" height="60" as="geometry" />
        </mxCell>
        <mxCell id="BlL1KjPirwgMcjWJh_a4-21" style="edgeStyle=orthogonalEdgeStyle;rounded=0;orthogonalLoop=1;jettySize=auto;html=1;" edge="1" parent="1" source="BlL1KjPirwgMcjWJh_a4-17" target="BlL1KjPirwgMcjWJh_a4-20">
          <mxGeometry relative="1" as="geometry" />
        </mxCell>
        <mxCell id="BlL1KjPirwgMcjWJh_a4-16" value="Завершить" style="whiteSpace=wrap;html=1;" vertex="1" parent="1">
          <mxGeometry x="440" y="690" width="120" height="60" as="geometry" />
        </mxCell>
        <mxCell id="BlL1KjPirwgMcjWJh_a4-18" style="edgeStyle=orthogonalEdgeStyle;rounded=0;orthogonalLoop=1;jettySize=auto;html=1;" edge="1" parent="1" source="BlL1KjPirwgMcjWJh_a4-13" target="BlL1KjPirwgMcjWJh_a4-16">
          <mxGeometry relative="1" as="geometry" />
        </mxCell>
        <mxCell id="BlL1KjPirwgMcjWJh_a4-17" value="Подвести итоги, определить победителей" style="whiteSpace=wrap;html=1;" vertex="1" parent="1">
          <mxGeometry x="440" y="780" width="120" height="60" as="geometry" />
        </mxCell>
        <mxCell id="BlL1KjPirwgMcjWJh_a4-20" value="Выдать награды" style="whiteSpace=wrap;html=1;" vertex="1" parent="1">
          <mxGeometry x="440" y="870" width="120" height="60" as="geometry" />
        </mxCell>
      </root>
    </mxGraphModel>
  </diagram>
</mxfile>
